<svg width="500" height="500" viewBox="0 0 500 500" fill="none" xmlns="http://www.w3.org/2000/svg">
<g clip-path="url(#clip0_26_38)">
<rect width="544" height="549" fill="white"/>
<path d="M253.933 131.845C248.94 131.323 242.906 131.01 237.289 131.01C210.762 131.01 188.604 137.374 188.604 144.365V149.268C176.433 145.721 168.943 140.922 168.943 135.601C168.943 124.855 199.319 116.195 236.664 116.195C254.037 116.195 269.849 118.073 281.812 121.203C328.624 102.945 415.799 64.447 450.544 32.5217C451.064 32.1043 450.96 32 450.44 32.4173C438.893 41.1811 422.456 50.3623 403.94 59.3348C388.856 42.6418 367.218 32 343.084 32H131.077C85.8255 32 49 68.9332 49 114.317V188.497C99.557 178.481 145.953 166.796 188.604 153.754V153.233V153.546C188.604 146.556 210.658 141.443 237.185 141.443C238.537 141.443 239.785 141.443 241.034 141.443C238.849 145.617 237.289 150.833 236.56 156.571C210.346 156.676 188.604 162.936 188.604 169.821V179.107C188.604 172.325 210.138 167.318 236.144 167.213C236.352 173.056 237.497 178.377 239.161 182.967C238.537 182.967 237.913 182.967 237.185 182.967C210.554 182.967 188.292 188.81 188.292 195.278V200.391C191.101 199.556 194.013 198.826 197.134 198.095C199.215 197.574 201.607 197.156 204.208 196.739C213.987 195.07 225.013 194.131 236.664 194.131C241.762 194.131 246.651 194.339 251.436 194.652C246.131 188.184 242.698 177.125 242.698 164.501C242.698 149.894 247.379 137.374 254.037 131.636L253.933 131.845ZM227.51 84.6872C228.134 81.5573 230.735 78.5317 235.832 77.2797C240.825 78.5317 243.426 81.453 244.154 84.4786C257.886 87.1912 269.225 97.207 275.05 110.457C271.93 109.831 268.601 109.309 265.168 108.892C260.903 102.215 254.661 96.0593 247.483 93.3467C251.956 98.459 254.557 102.737 256.742 107.953C253.621 107.64 250.5 107.536 247.275 107.327C244.883 101.693 241.138 96.9983 235.832 94.39C230.423 96.9983 226.782 101.693 224.389 107.327C221.06 107.536 217.836 107.744 214.611 108.057C216.795 102.737 219.396 98.459 223.973 93.2424C216.691 95.955 210.45 102.319 206.185 109.101C203.168 109.518 200.359 110.04 197.654 110.561C203.272 97.52 214.299 87.7129 227.51 84.6872ZM425.161 220.735V326.944C425.161 372.328 388.336 409.262 343.084 409.262H315.933L324.359 468L307.819 409.262L292.215 246.401C283.06 235.863 269.121 229.186 253.517 229.082H253.101C247.795 229.082 242.178 229.812 236.456 231.273C210.242 238.054 187.564 258.92 176.329 283.542L164.366 409.157L147.826 467.896L156.252 409.157H131.077C85.8255 409.157 49 372.224 49 326.84V207.276C83.849 203.625 132.534 201.329 185.691 201.121C172.272 205.503 163.846 211.658 163.846 218.44L162.597 230.855C162.597 230.855 162.597 232.838 163.638 231.168C170.711 220.213 200.671 211.971 236.56 211.971C272.45 211.971 301.889 220.109 309.379 230.855C310.523 232.525 310.628 230.438 310.628 230.438L309.379 218.335C309.379 212.806 303.866 207.798 294.607 203.729C326.232 205.503 437.124 215.832 452 220.422H425.161V220.735ZM431.715 136.957L281.604 165.648C283.581 167.109 284.621 168.57 284.621 170.134V179.42C284.621 177.646 283.164 175.873 280.46 174.412C280.876 171.699 281.084 168.778 281.188 165.753L262.567 169.3C261.111 169.3 259.862 166.796 259.862 163.77C259.862 160.745 261.007 158.345 262.567 158.241L431.715 137.061V136.957ZM246.339 292.098V317.554C246.339 323.084 226.366 323.084 226.366 317.554V292.098C226.366 286.568 230.839 282.082 236.352 282.082C241.866 282.082 246.339 286.568 246.339 292.098ZM279.003 147.912C277.651 143.217 275.779 139.148 273.594 136.018C280.46 138.418 284.725 141.339 284.725 144.469V153.754C284.725 151.564 282.644 149.581 279.107 147.912H279.003ZM284.621 195.487V200.495C281.812 199.66 278.899 198.93 275.779 198.304C274.114 197.887 272.346 197.574 270.369 197.156C272.658 195.07 274.634 192.253 276.299 188.705C281.5 190.688 284.621 193.087 284.621 195.487Z" fill="#CB202E"/>
</g>
<defs>
<clipPath id="clip0_26_38">
<rect width="500" height="500" fill="white"/>
</clipPath>
</defs>
</svg>
